<svg width="1280" height="640" viewBox="0 0 1280 640" fill="none" xmlns="http://www.w3.org/2000/svg">
<rect width="1280" height="640" rx="32" fill="white"/>
<path d="M177.92 427.624V388.424H195C199.629 388.424 203.307 389.618 206.032 392.008C208.757 394.397 210.12 397.402 210.12 401.024C210.12 403.898 209.224 406.437 207.432 408.64C205.677 410.805 203.213 412.28 200.04 413.064L209.84 427.624H202.28L193.04 413.624H184.36V427.624H177.92ZM184.36 407.464H195C200.6 407.464 203.4 405.317 203.4 401.024C203.4 396.73 200.6 394.584 195 394.584H184.36V407.464ZM215.49 423.928C212.69 421.053 211.29 417.525 211.29 413.344C211.29 409.162 212.69 405.653 215.49 402.816C218.328 399.941 221.781 398.504 225.85 398.504C229.92 398.504 233.354 399.941 236.154 402.816C238.992 405.653 240.41 409.162 240.41 413.344V415.304H217.17C217.618 417.656 218.645 419.504 220.25 420.848C221.856 422.192 223.722 422.864 225.85 422.864C228.464 422.864 230.554 422.21 232.122 420.904C232.832 420.381 233.448 419.728 233.97 418.944H240.13C239.346 420.773 238.357 422.322 237.162 423.592C234.101 426.653 230.33 428.184 225.85 428.184C221.781 428.184 218.328 426.765 215.49 423.928ZM217.45 410.544H234.25C233.914 408.677 233.018 407.09 231.562 405.784C230.144 404.477 228.24 403.824 225.85 403.824C223.834 403.824 222.042 404.44 220.474 405.672C218.906 406.866 217.898 408.49 217.45 410.544ZM242.095 415.864H248.815C249.076 417.17 249.617 418.346 250.439 419.392C252.231 421.706 254.956 422.864 258.615 422.864C261.564 422.864 263.748 422.341 265.167 421.296C266.585 420.213 267.295 418.776 267.295 416.984C267.295 415.565 266.641 414.426 265.335 413.568C264.065 412.709 262.236 411.962 259.847 411.328C255.18 410.133 252.044 409.144 250.439 408.36C245.996 406.306 243.775 403.208 243.775 399.064C243.775 395.89 245.119 393.146 247.807 390.832C250.495 388.48 254.004 387.304 258.335 387.304C264.084 387.304 268.359 389.226 271.159 393.072C272.353 394.714 273.212 396.618 273.735 398.784H267.015C266.753 397.738 266.287 396.805 265.615 395.984C264.047 394.117 261.62 393.184 258.335 393.184C255.796 393.184 253.855 393.706 252.511 394.752C251.167 395.797 250.495 397.141 250.495 398.784C250.495 401.248 252.977 403.152 257.943 404.496C258.353 404.608 259.137 404.832 260.295 405.168C261.452 405.466 262.273 405.709 262.759 405.896C263.281 406.045 264.065 406.306 265.111 406.68C266.193 407.016 266.996 407.333 267.519 407.632C268.041 407.93 268.713 408.322 269.535 408.808C270.356 409.256 270.972 409.741 271.383 410.264C271.831 410.749 272.279 411.309 272.727 411.944C273.212 412.578 273.548 413.306 273.735 414.128C273.921 414.912 274.015 415.77 274.015 416.704C274.015 420.064 272.615 422.92 269.815 425.272C267.052 427.586 263.319 428.744 258.615 428.744C252.343 428.744 247.732 426.597 244.783 422.304C243.439 420.474 242.543 418.328 242.095 415.864ZM280.036 423.984C277.311 421.184 275.948 417.637 275.948 413.344C275.948 409.05 277.311 405.504 280.036 402.704C282.762 399.904 286.159 398.504 290.228 398.504C294.783 398.504 298.498 400.24 301.372 403.712C302.604 405.317 303.463 407.034 303.948 408.864H297.788C297.527 407.93 297.042 407.09 296.332 406.344C294.876 404.664 292.842 403.824 290.228 403.824C287.914 403.824 285.972 404.701 284.404 406.456C282.874 408.21 282.108 410.506 282.108 413.344C282.108 416.181 282.874 418.477 284.404 420.232C285.972 421.986 287.914 422.864 290.228 422.864C292.916 422.864 295.026 422.024 296.556 420.344C297.228 419.597 297.732 418.757 298.068 417.824H303.948C303.463 419.728 302.604 421.464 301.372 423.032C298.535 426.466 294.82 428.184 290.228 428.184C286.159 428.184 282.762 426.784 280.036 423.984ZM306.731 427.624V399.064H312.611V403.264H312.891C313.302 402.48 313.899 401.733 314.683 401.024C316.4 399.53 318.416 398.784 320.731 398.784H324.091V404.384H320.451C318.174 404.384 316.288 405.112 314.795 406.568C313.339 407.986 312.611 409.872 312.611 412.224V427.624H306.731ZM327.039 393.856C326.367 393.184 326.031 392.362 326.031 391.392C326.031 390.421 326.367 389.6 327.039 388.928C327.711 388.218 328.533 387.864 329.503 387.864C330.474 387.864 331.295 388.218 331.967 388.928C332.677 389.6 333.031 390.421 333.031 391.392C333.031 392.362 332.677 393.184 331.967 393.856C331.295 394.528 330.474 394.864 329.503 394.864C328.533 394.864 327.711 394.528 327.039 393.856ZM326.591 427.624V399.064H332.471V427.624H326.591ZM337.209 438.264V399.064H343.089V402.704H343.369C344.041 401.92 344.807 401.229 345.665 400.632C347.681 399.213 349.903 398.504 352.329 398.504C356.175 398.504 359.367 399.885 361.905 402.648C364.481 405.373 365.769 408.938 365.769 413.344C365.769 417.749 364.481 421.333 361.905 424.096C359.367 426.821 356.175 428.184 352.329 428.184C349.865 428.184 347.644 427.493 345.665 426.112C344.769 425.477 344.004 424.768 343.369 423.984H343.089V438.264H337.209ZM345.273 406.344C343.817 407.986 343.089 410.32 343.089 413.344C343.089 416.368 343.817 418.72 345.273 420.4C346.767 422.042 348.745 422.864 351.209 422.864C353.823 422.864 355.876 422.042 357.369 420.4C358.863 418.757 359.609 416.405 359.609 413.344C359.609 410.282 358.863 407.93 357.369 406.288C355.876 404.645 353.823 403.824 351.209 403.824C348.745 403.824 346.767 404.664 345.273 406.344ZM366.587 404.384V399.064H369.947V392.904H375.827V399.064H384.507V404.384H375.827V422.304H384.788V427.624H369.947V404.384H366.587ZM401.603 427.624V388.424H407.483V402.704H407.763C408.435 401.92 409.2 401.229 410.059 400.632C412.075 399.213 414.296 398.504 416.723 398.504C420.568 398.504 423.76 399.885 426.299 402.648C428.875 405.373 430.163 408.938 430.163 413.344C430.163 417.749 428.875 421.333 426.299 424.096C423.76 426.821 420.568 428.184 416.723 428.184C414.259 428.184 412.037 427.493 410.059 426.112C409.163 425.477 408.397 424.768 407.763 423.984H407.483V427.624H401.603ZM409.667 406.344C408.211 407.986 407.483 410.32 407.483 413.344C407.483 416.368 408.211 418.72 409.667 420.4C411.16 422.042 413.139 422.864 415.603 422.864C418.216 422.864 420.269 422.042 421.763 420.4C423.256 418.757 424.003 416.405 424.003 413.344C424.003 410.282 423.256 407.93 421.763 406.288C420.269 404.645 418.216 403.824 415.603 403.824C413.139 403.824 411.16 404.664 409.667 406.344ZM433.669 393.856C432.997 393.184 432.661 392.362 432.661 391.392C432.661 390.421 432.997 389.6 433.669 388.928C434.341 388.218 435.162 387.864 436.133 387.864C437.104 387.864 437.925 388.218 438.597 388.928C439.306 389.6 439.661 390.421 439.661 391.392C439.661 392.362 439.306 393.184 438.597 393.856C437.925 394.528 437.104 394.864 436.133 394.864C435.162 394.864 434.341 394.528 433.669 393.856ZM433.221 427.624V399.064H439.101V427.624H433.221ZM443.839 427.624V399.064H449.719V402.984H449.999C450.447 402.237 451.138 401.49 452.071 400.744C454.087 399.25 456.383 398.504 458.959 398.504C462.506 398.504 465.25 399.53 467.191 401.584C469.17 403.637 470.159 406.624 470.159 410.544V427.624H464.279V411.104C464.279 408.602 463.719 406.773 462.599 405.616C461.516 404.421 459.836 403.824 457.559 403.824C455.282 403.824 453.396 404.608 451.903 406.176C450.447 407.706 449.719 409.722 449.719 412.224V427.624H443.839ZM476.765 424.096C474.226 421.333 472.957 417.749 472.957 413.344C472.957 408.938 474.226 405.373 476.765 402.648C479.341 399.885 482.552 398.504 486.397 398.504C488.824 398.504 491.045 399.213 493.061 400.632C493.92 401.229 494.685 401.92 495.357 402.704H495.637V388.424H501.517V427.624H495.637V423.984H495.357C494.722 424.768 493.957 425.477 493.061 426.112C491.082 427.493 488.861 428.184 486.397 428.184C482.552 428.184 479.341 426.821 476.765 424.096ZM481.357 406.288C479.864 407.93 479.117 410.282 479.117 413.344C479.117 416.405 479.864 418.757 481.357 420.4C482.85 422.042 484.904 422.864 487.517 422.864C489.981 422.864 491.941 422.042 493.397 420.4C494.89 418.72 495.637 416.368 495.637 413.344C495.637 410.32 494.89 407.986 493.397 406.344C491.941 404.664 489.981 403.824 487.517 403.824C484.904 403.824 482.85 404.645 481.357 406.288ZM506.703 393.856C506.031 393.184 505.695 392.362 505.695 391.392C505.695 390.421 506.031 389.6 506.703 388.928C507.375 388.218 508.196 387.864 509.167 387.864C510.138 387.864 510.959 388.218 511.631 388.928C512.34 389.6 512.695 390.421 512.695 391.392C512.695 392.362 512.34 393.184 511.631 393.856C510.959 394.528 510.138 394.864 509.167 394.864C508.196 394.864 507.375 394.528 506.703 393.856ZM506.255 427.624V399.064H512.135V427.624H506.255ZM516.873 427.624V399.064H522.753V402.984H523.033C523.481 402.237 524.172 401.49 525.105 400.744C527.121 399.25 529.417 398.504 531.993 398.504C535.54 398.504 538.284 399.53 540.225 401.584C542.204 403.637 543.193 406.624 543.193 410.544V427.624H537.313V411.104C537.313 408.602 536.753 406.773 535.633 405.616C534.55 404.421 532.87 403.824 530.593 403.824C528.316 403.824 526.43 404.608 524.937 406.176C523.481 407.706 522.753 409.722 522.753 412.224V427.624H516.873ZM549.799 424.096C547.26 421.333 545.991 417.749 545.991 413.344C545.991 408.938 547.26 405.373 549.799 402.648C552.375 399.885 555.586 398.504 559.431 398.504C561.858 398.504 564.079 399.213 566.095 400.632C566.991 401.266 567.756 401.976 568.391 402.76H568.671V399.064H574.551V438.264H550.191V432.944H568.671V423.984H568.391C567.756 424.768 566.991 425.477 566.095 426.112C564.116 427.493 561.895 428.184 559.431 428.184C555.586 428.184 552.375 426.821 549.799 424.096ZM554.391 406.288C552.898 407.93 552.151 410.282 552.151 413.344C552.151 416.405 552.898 418.757 554.391 420.4C555.884 422.042 557.938 422.864 560.551 422.864C563.015 422.864 564.975 422.042 566.431 420.4C567.924 418.72 568.671 416.368 568.671 413.344C568.671 410.32 567.924 407.986 566.431 406.344C564.975 404.664 563.015 403.824 560.551 403.824C557.938 403.824 555.884 404.645 554.391 406.288ZM577.329 418.664H583.769C584.03 419.41 584.497 420.12 585.169 420.792C586.55 422.173 588.417 422.864 590.769 422.864C592.822 422.864 594.316 422.546 595.249 421.912C596.182 421.277 596.649 420.474 596.649 419.504C596.649 419.168 596.574 418.869 596.425 418.608C596.276 418.309 596.014 418.048 595.641 417.824C595.268 417.6 594.913 417.413 594.577 417.264C594.241 417.077 593.737 416.909 593.065 416.76C592.393 416.573 591.852 416.442 591.441 416.368C591.03 416.256 590.396 416.106 589.537 415.92C588.716 415.733 588.1 415.602 587.689 415.528C581.716 414.184 578.729 411.309 578.729 406.904C578.729 404.664 579.756 402.704 581.809 401.024C583.862 399.344 586.569 398.504 589.929 398.504C594.596 398.504 598.086 399.997 600.401 402.984C601.446 404.29 602.156 405.784 602.529 407.464H596.369C596.07 406.717 595.66 406.12 595.137 405.672C593.83 404.44 592.094 403.824 589.929 403.824C588.249 403.824 586.98 404.122 586.121 404.72C585.3 405.317 584.889 406.064 584.889 406.96C584.889 407.296 584.964 407.613 585.113 407.912C585.262 408.173 585.524 408.416 585.897 408.64C586.27 408.864 586.625 409.05 586.961 409.2C587.334 409.349 587.838 409.517 588.473 409.704C589.108 409.853 589.649 409.984 590.097 410.096C590.545 410.17 591.161 410.301 591.945 410.488C592.766 410.637 593.401 410.768 593.849 410.88C599.822 412.224 602.809 415.098 602.809 419.504C602.809 421.893 601.726 423.946 599.561 425.664C597.433 427.344 594.502 428.184 590.769 428.184C585.916 428.184 582.201 426.597 579.625 423.424C578.468 421.968 577.702 420.381 577.329 418.664ZM617.371 404.384V399.064H620.731V388.424H635.011V393.744H626.611V399.064H633.331V404.384H626.611V427.624H620.731V404.384H617.371ZM638.438 423.928C635.601 421.053 634.182 417.525 634.182 413.344C634.182 409.162 635.601 405.653 638.438 402.816C641.313 399.941 644.841 398.504 649.022 398.504C653.204 398.504 656.713 399.941 659.55 402.816C662.425 405.653 663.862 409.162 663.862 413.344C663.862 417.525 662.425 421.053 659.55 423.928C656.713 426.765 653.204 428.184 649.022 428.184C644.841 428.184 641.313 426.765 638.438 423.928ZM642.75 406.456C641.145 408.173 640.342 410.469 640.342 413.344C640.342 416.218 641.145 418.533 642.75 420.288C644.356 422.005 646.446 422.864 649.022 422.864C651.598 422.864 653.689 422.005 655.294 420.288C656.9 418.533 657.702 416.218 657.702 413.344C657.702 410.469 656.9 408.173 655.294 406.456C653.689 404.701 651.598 403.824 649.022 403.824C646.446 403.824 644.356 404.701 642.75 406.456ZM666.933 427.624V399.064H672.813V403.264H673.093C673.504 402.48 674.101 401.733 674.885 401.024C676.603 399.53 678.619 398.784 680.933 398.784H684.293V404.384H680.653C678.376 404.384 676.491 405.112 674.997 406.568C673.541 407.986 672.813 409.872 672.813 412.224V427.624H666.933ZM701.089 427.624V388.424H718.169C722.798 388.424 726.476 389.618 729.201 392.008C731.926 394.397 733.289 397.402 733.289 401.024C733.289 403.898 732.393 406.437 730.601 408.64C728.846 410.805 726.382 412.28 723.209 413.064L733.009 427.624H725.449L716.209 413.624H707.529V427.624H701.089ZM707.529 407.464H718.169C723.769 407.464 726.569 405.317 726.569 401.024C726.569 396.73 723.769 394.584 718.169 394.584H707.529V407.464ZM738.659 423.928C735.859 421.053 734.459 417.525 734.459 413.344C734.459 409.162 735.859 405.653 738.659 402.816C741.497 399.941 744.95 398.504 749.019 398.504C753.089 398.504 756.523 399.941 759.323 402.816C762.161 405.653 763.579 409.162 763.579 413.344V415.304H740.339C740.787 417.656 741.814 419.504 743.419 420.848C745.025 422.192 746.891 422.864 749.019 422.864C751.633 422.864 753.723 422.21 755.291 420.904C756.001 420.381 756.617 419.728 757.139 418.944H763.299C762.515 420.773 761.526 422.322 760.331 423.592C757.27 426.653 753.499 428.184 749.019 428.184C744.95 428.184 741.497 426.765 738.659 423.928ZM740.619 410.544H757.419C757.083 408.677 756.187 407.09 754.731 405.784C753.313 404.477 751.409 403.824 749.019 403.824C747.003 403.824 745.211 404.44 743.643 405.672C742.075 406.866 741.067 408.49 740.619 410.544ZM768.792 424.096C766.253 421.333 764.984 417.749 764.984 413.344C764.984 408.938 766.253 405.373 768.792 402.648C771.368 399.885 774.578 398.504 778.424 398.504C780.85 398.504 783.072 399.213 785.088 400.632C785.946 401.229 786.712 401.92 787.384 402.704H787.664V399.064H793.544V427.624H787.664V423.704H787.384C786.824 424.488 786.058 425.234 785.088 425.944C783.072 427.437 780.85 428.184 778.424 428.184C774.578 428.184 771.368 426.821 768.792 424.096ZM773.384 406.288C771.89 407.93 771.144 410.282 771.144 413.344C771.144 416.405 771.89 418.757 773.384 420.4C774.877 422.042 776.93 422.864 779.544 422.864C782.008 422.864 783.968 422.042 785.424 420.4C786.917 418.72 787.664 416.368 787.664 413.344C787.664 410.32 786.917 407.986 785.424 406.344C783.968 404.664 782.008 403.824 779.544 403.824C776.93 403.824 774.877 404.645 773.384 406.288ZM800.69 423.984C797.965 421.184 796.602 417.637 796.602 413.344C796.602 409.05 797.965 405.504 800.69 402.704C803.415 399.904 806.813 398.504 810.882 398.504C815.437 398.504 819.151 400.24 822.026 403.712C823.258 405.317 824.117 407.034 824.602 408.864H818.442C818.181 407.93 817.695 407.09 816.986 406.344C815.53 404.664 813.495 403.824 810.882 403.824C808.567 403.824 806.626 404.701 805.058 406.456C803.527 408.21 802.762 410.506 802.762 413.344C802.762 416.181 803.527 418.477 805.058 420.232C806.626 421.986 808.567 422.864 810.882 422.864C813.57 422.864 815.679 422.024 817.21 420.344C817.882 419.597 818.386 418.757 818.722 417.824H824.602C824.117 419.728 823.258 421.464 822.026 423.032C819.189 426.466 815.474 428.184 810.882 428.184C806.813 428.184 803.415 426.784 800.69 423.984ZM825.144 404.384V399.064H828.504V392.904H834.384V399.064H843.064V404.384H834.384V422.304H843.344V427.624H828.504V404.384H825.144ZM860.72 427.624V388.424H880.04C883.736 388.424 886.666 389.394 888.832 391.336C890.997 393.24 892.08 395.629 892.08 398.504C892.08 401.378 891.09 403.581 889.112 405.112C888.29 405.746 887.32 406.25 886.2 406.624V406.904C887.581 407.202 888.794 407.706 889.84 408.416C892.266 410.17 893.48 412.84 893.48 416.424C893.48 419.746 892.285 422.453 889.896 424.544C887.506 426.597 884.128 427.624 879.76 427.624H860.72ZM867.16 404.384H879.76C881.552 404.384 882.933 403.936 883.904 403.04C884.874 402.144 885.36 400.893 885.36 399.288C885.36 397.869 884.874 396.73 883.904 395.872C882.933 395.013 881.552 394.584 879.76 394.584H867.16V404.384ZM867.16 421.464H879.48C884.333 421.464 886.76 419.597 886.76 415.864C886.76 412.13 884.333 410.264 879.48 410.264H867.16V421.464ZM900.26 423.928C897.423 421.053 896.004 417.525 896.004 413.344C896.004 409.162 897.423 405.653 900.26 402.816C903.135 399.941 906.663 398.504 910.844 398.504C915.025 398.504 918.535 399.941 921.372 402.816C924.247 405.653 925.684 409.162 925.684 413.344C925.684 417.525 924.247 421.053 921.372 423.928C918.535 426.765 915.025 428.184 910.844 428.184C906.663 428.184 903.135 426.765 900.26 423.928ZM904.572 406.456C902.967 408.173 902.164 410.469 902.164 413.344C902.164 416.218 902.967 418.533 904.572 420.288C906.177 422.005 908.268 422.864 910.844 422.864C913.42 422.864 915.511 422.005 917.116 420.288C918.721 418.533 919.524 416.218 919.524 413.344C919.524 410.469 918.721 408.173 917.116 406.456C915.511 404.701 913.42 403.824 910.844 403.824C908.268 403.824 906.177 404.701 904.572 406.456ZM931.331 423.928C928.494 421.053 927.075 417.525 927.075 413.344C927.075 409.162 928.494 405.653 931.331 402.816C934.206 399.941 937.734 398.504 941.915 398.504C946.097 398.504 949.606 399.941 952.443 402.816C955.318 405.653 956.755 409.162 956.755 413.344C956.755 417.525 955.318 421.053 952.443 423.928C949.606 426.765 946.097 428.184 941.915 428.184C937.734 428.184 934.206 426.765 931.331 423.928ZM935.643 406.456C934.038 408.173 933.235 410.469 933.235 413.344C933.235 416.218 934.038 418.533 935.643 420.288C937.249 422.005 939.339 422.864 941.915 422.864C944.491 422.864 946.582 422.005 948.187 420.288C949.793 418.533 950.595 416.218 950.595 413.344C950.595 410.469 949.793 408.173 948.187 406.456C946.582 404.701 944.491 403.824 941.915 403.824C939.339 403.824 937.249 404.701 935.643 406.456ZM957.587 404.384V399.064H960.947V392.904H966.827V399.064H975.507V404.384H966.827V422.304H975.787V427.624H960.947V404.384H957.587ZM976.907 418.664H983.347C983.608 419.41 984.075 420.12 984.747 420.792C986.128 422.173 987.995 422.864 990.347 422.864C992.4 422.864 993.893 422.546 994.827 421.912C995.76 421.277 996.227 420.474 996.227 419.504C996.227 419.168 996.152 418.869 996.003 418.608C995.853 418.309 995.592 418.048 995.219 417.824C994.845 417.6 994.491 417.413 994.155 417.264C993.819 417.077 993.315 416.909 992.643 416.76C991.971 416.573 991.429 416.442 991.019 416.368C990.608 416.256 989.973 416.106 989.115 415.92C988.293 415.733 987.677 415.602 987.267 415.528C981.293 414.184 978.307 411.309 978.307 406.904C978.307 404.664 979.333 402.704 981.387 401.024C983.44 399.344 986.147 398.504 989.507 398.504C994.173 398.504 997.664 399.997 999.979 402.984C1001.02 404.29 1001.73 405.784 1002.11 407.464H995.947C995.648 406.717 995.237 406.12 994.715 405.672C993.408 404.44 991.672 403.824 989.507 403.824C987.827 403.824 986.557 404.122 985.699 404.72C984.877 405.317 984.467 406.064 984.467 406.96C984.467 407.296 984.541 407.613 984.691 407.912C984.84 408.173 985.101 408.416 985.475 408.64C985.848 408.864 986.203 409.05 986.539 409.2C986.912 409.349 987.416 409.517 988.051 409.704C988.685 409.853 989.227 409.984 989.675 410.096C990.123 410.17 990.739 410.301 991.523 410.488C992.344 410.637 992.979 410.768 993.427 410.88C999.4 412.224 1002.39 415.098 1002.39 419.504C1002.39 421.893 1001.3 423.946 999.139 425.664C997.011 427.344 994.08 428.184 990.347 428.184C985.493 428.184 981.779 426.597 979.203 423.424C978.045 421.968 977.28 420.381 976.907 418.664ZM1003.21 404.384V399.064H1006.57V392.904H1012.45V399.064H1021.13V404.384H1012.45V422.304H1021.41V427.624H1006.57V404.384H1003.21ZM1024.49 427.624V399.064H1030.37V403.264H1030.65C1031.06 402.48 1031.66 401.733 1032.45 401.024C1034.16 399.53 1036.18 398.784 1038.49 398.784H1041.85V404.384H1038.21C1035.94 404.384 1034.05 405.112 1032.56 406.568C1031.1 407.986 1030.37 409.872 1030.37 412.224V427.624H1024.49ZM1046.48 424.096C1043.94 421.333 1042.67 417.749 1042.67 413.344C1042.67 408.938 1043.94 405.373 1046.48 402.648C1049.06 399.885 1052.27 398.504 1056.11 398.504C1058.54 398.504 1060.76 399.213 1062.78 400.632C1063.64 401.229 1064.4 401.92 1065.07 402.704H1065.35V399.064H1071.23V427.624H1065.35V423.704H1065.07C1064.51 424.488 1063.75 425.234 1062.78 425.944C1060.76 427.437 1058.54 428.184 1056.11 428.184C1052.27 428.184 1049.06 426.821 1046.48 424.096ZM1051.07 406.288C1049.58 407.93 1048.83 410.282 1048.83 413.344C1048.83 416.405 1049.58 418.757 1051.07 420.4C1052.57 422.042 1054.62 422.864 1057.23 422.864C1059.7 422.864 1061.66 422.042 1063.11 420.4C1064.61 418.72 1065.35 416.368 1065.35 413.344C1065.35 410.32 1064.61 407.986 1063.11 406.344C1061.66 404.664 1059.7 403.824 1057.23 403.824C1054.62 403.824 1052.57 404.645 1051.07 406.288ZM1075.97 438.264V399.064H1081.85V402.704H1082.13C1082.8 401.92 1083.57 401.229 1084.43 400.632C1086.44 399.213 1088.67 398.504 1091.09 398.504C1094.94 398.504 1098.13 399.885 1100.67 402.648C1103.24 405.373 1104.53 408.938 1104.53 413.344C1104.53 417.749 1103.24 421.333 1100.67 424.096C1098.13 426.821 1094.94 428.184 1091.09 428.184C1088.63 428.184 1086.41 427.493 1084.43 426.112C1083.53 425.477 1082.77 424.768 1082.13 423.984H1081.85V438.264H1075.97ZM1084.04 406.344C1082.58 407.986 1081.85 410.32 1081.85 413.344C1081.85 416.368 1082.58 418.72 1084.04 420.4C1085.53 422.042 1087.51 422.864 1089.97 422.864C1092.59 422.864 1094.64 422.042 1096.13 420.4C1097.63 418.757 1098.37 416.405 1098.37 413.344C1098.37 410.282 1097.63 407.93 1096.13 406.288C1094.64 404.645 1092.59 403.824 1089.97 403.824C1087.51 403.824 1085.53 404.664 1084.04 406.344Z" fill="#0E0E0E"/>
<g clip-path="url(#clip0)">
<g filter="url(#filter0_i)">
<path d="M709.152 236.888C709.152 219.445 709.152 210.728 713.593 204.61C715.029 202.636 716.766 200.899 718.741 199.463C724.852 195.022 733.575 195.022 751.015 195.022H797.974C815.417 195.022 824.134 195.022 830.252 199.463C832.226 200.898 833.962 202.635 835.396 204.61C839.839 210.724 839.839 219.445 839.839 236.888V283.845C839.839 301.288 839.839 310.005 835.396 316.122C833.963 318.097 832.227 319.834 830.252 321.267C824.138 325.711 815.417 325.711 797.974 325.711H751.015C733.575 325.711 724.855 325.711 718.741 321.267C716.765 319.833 715.028 318.097 713.593 316.122C709.152 310.009 709.152 301.288 709.152 283.845V236.888Z" fill="#DD1350"/>
</g>
<g filter="url(#filter1_di)">
<path d="M797.712 257.261C806.281 257.261 813.229 250.314 813.229 241.745C813.229 233.175 806.281 226.228 797.712 226.228C789.142 226.228 782.196 233.175 782.196 241.745C782.196 250.314 789.142 257.261 797.712 257.261Z" fill="#FBFBFB"/>
</g>
<path d="M744.394 240.884C744.394 235.959 744.394 233.495 745.356 231.61C746.198 229.953 747.544 228.605 749.201 227.761C751.083 226.804 753.546 226.804 758.475 226.804L769.715 225.71L770.792 226.804V283.992C770.792 288.091 770.495 289.934 769.825 291.549C769.382 292.616 768.734 293.586 767.917 294.403C767.1 295.22 766.13 295.868 765.062 296.31C763.447 296.98 761.693 297.188 757.595 297.188C753.496 297.188 751.446 297.188 749.831 296.518C748.763 296.076 747.793 295.428 746.976 294.611C746.159 293.795 745.511 292.824 745.068 291.757C744.398 290.141 744.398 288.09 744.398 283.992L744.394 240.884Z" fill="#DD1350"/>
<g filter="url(#filter2_i)">
<path d="M743.297 239.784C743.297 234.858 743.297 232.394 744.259 230.51C745.101 228.852 746.447 227.504 748.104 226.66C749.986 225.703 752.449 225.703 757.378 225.703H769.696V282.891C769.696 286.991 769.696 289.042 769.025 290.656C768.583 291.724 767.935 292.694 767.118 293.511C766.301 294.328 765.331 294.976 764.263 295.418C762.647 296.088 760.597 296.088 756.498 296.088C752.399 296.088 750.349 296.088 748.734 295.418C747.666 294.976 746.696 294.328 745.879 293.511C745.062 292.694 744.414 291.724 743.971 290.656C743.301 289.041 743.301 286.99 743.301 282.891L743.297 239.784Z" fill="#FBFBFB"/>
</g>
</g>
<path d="M677.152 258.656C677.152 260.801 675.413 262.54 673.268 262.54H660.806V275.002C660.806 277.371 658.886 279.291 656.517 279.291C654.149 279.291 652.228 277.371 652.228 275.002V262.54H639.767C637.621 262.54 635.882 260.801 635.882 258.656C635.882 256.511 637.621 254.772 639.767 254.772H652.228V242.31C652.228 239.941 654.149 238.021 656.517 238.021C658.886 238.021 660.806 239.941 660.806 242.31V254.772H673.268C675.413 254.772 677.152 256.511 677.152 258.656Z" fill="#0E0E0E"/>
<g clip-path="url(#clip1)">
<path d="M459.858 212.356C459.553 203.585 466.386 195.497 475.623 195.497H570.271C579.508 195.497 586.342 203.585 586.036 212.356C585.743 220.781 586.124 231.695 588.87 240.594C591.626 249.52 596.272 255.162 603.882 255.887V264.108C596.272 264.833 591.626 270.475 588.87 279.401C586.124 288.3 585.743 299.214 586.036 307.639C586.342 316.409 579.508 324.497 570.271 324.497H475.623C466.386 324.497 459.553 316.409 459.858 307.639C460.151 299.214 459.77 288.3 457.023 279.401C454.268 270.475 449.61 264.833 442 264.108V255.887C449.61 255.162 454.268 249.52 457.023 240.594C459.77 231.695 460.151 220.781 459.858 212.356V212.356Z" fill="url(#paint0_linear)"/>
<g filter="url(#filter3_d)">
<path d="M526.451 294.289C541.406 294.289 550.417 286.967 550.417 274.89C550.417 265.761 543.987 259.152 534.44 258.106V257.725C541.454 256.584 546.959 250.07 546.959 242.796C546.959 232.43 538.775 225.679 526.305 225.679H498.248V294.289H526.451ZM509.159 234.38H523.675C531.566 234.38 536.047 237.898 536.047 244.269C536.047 251.069 530.836 254.872 521.386 254.872H509.159V234.38V234.38ZM509.159 285.588V263.003H523.577C533.904 263.003 539.262 266.807 539.262 274.224C539.262 281.641 534.05 285.588 524.211 285.588H509.159V285.588Z" fill="url(#paint1_linear)"/>
<path d="M526.451 294.289C541.406 294.289 550.417 286.967 550.417 274.89C550.417 265.761 543.987 259.152 534.44 258.106V257.725C541.454 256.584 546.959 250.07 546.959 242.796C546.959 232.43 538.775 225.679 526.305 225.679H498.248V294.289H526.451ZM509.159 234.38H523.675C531.566 234.38 536.047 237.898 536.047 244.269C536.047 251.069 530.836 254.872 521.386 254.872H509.159V234.38V234.38ZM509.159 285.588V263.003H523.577C533.904 263.003 539.262 266.807 539.262 274.224C539.262 281.641 534.05 285.588 524.211 285.588H509.159V285.588Z" stroke="white" stroke-width="1.22638"/>
</g>
</g>
<defs>
<filter id="filter0_i" x="709.152" y="194.147" width="130.687" height="131.563" filterUnits="userSpaceOnUse" color-interpolation-filters="sRGB">
<feFlood flood-opacity="0" result="BackgroundImageFix"/>
<feBlend mode="normal" in="SourceGraphic" in2="BackgroundImageFix" result="shape"/>
<feColorMatrix in="SourceAlpha" type="matrix" values="0 0 0 0 0 0 0 0 0 0 0 0 0 0 0 0 0 0 127 0" result="hardAlpha"/>
<feOffset dy="-0.874915"/>
<feGaussianBlur stdDeviation="0.874915"/>
<feComposite in2="hardAlpha" operator="arithmetic" k2="-1" k3="1"/>
<feColorMatrix type="matrix" values="0 0 0 0 0 0 0 0 0 0 0 0 0 0 0 0 0 0 0.2 0"/>
<feBlend mode="normal" in2="shape" result="effect1_innerShadow"/>
</filter>
<filter id="filter1_di" x="780.446" y="223.603" width="35.9823" height="36.8573" filterUnits="userSpaceOnUse" color-interpolation-filters="sRGB">
<feFlood flood-opacity="0" result="BackgroundImageFix"/>
<feColorMatrix in="SourceAlpha" type="matrix" values="0 0 0 0 0 0 0 0 0 0 0 0 0 0 0 0 0 0 127 0" result="hardAlpha"/>
<feOffset dx="1.10823" dy="1.10823"/>
<feGaussianBlur stdDeviation="1.04551"/>
<feColorMatrix type="matrix" values="0 0 0 0 0 0 0 0 0 0 0 0 0 0 0 0 0 0 0.15 0"/>
<feBlend mode="normal" in2="BackgroundImageFix" result="effect1_dropShadow"/>
<feBlend mode="normal" in="SourceGraphic" in2="effect1_dropShadow" result="shape"/>
<feColorMatrix in="SourceAlpha" type="matrix" values="0 0 0 0 0 0 0 0 0 0 0 0 0 0 0 0 0 0 127 0" result="hardAlpha"/>
<feOffset dx="-1.74984" dy="-2.62475"/>
<feGaussianBlur stdDeviation="2.21646"/>
<feComposite in2="hardAlpha" operator="arithmetic" k2="-1" k3="1"/>
<feColorMatrix type="matrix" values="0 0 0 0 0.321804 0 0 0 0 0.309804 0 0 0 0 0.909804 0 0 0 0.25 0"/>
<feBlend mode="normal" in2="shape" result="effect2_innerShadow"/>
</filter>
<filter id="filter2_i" x="741.546" y="223.078" width="28.1497" height="73.0095" filterUnits="userSpaceOnUse" color-interpolation-filters="sRGB">
<feFlood flood-opacity="0" result="BackgroundImageFix"/>
<feBlend mode="normal" in="SourceGraphic" in2="BackgroundImageFix" result="shape"/>
<feColorMatrix in="SourceAlpha" type="matrix" values="0 0 0 0 0 0 0 0 0 0 0 0 0 0 0 0 0 0 127 0" result="hardAlpha"/>
<feOffset dx="-1.75101" dy="-2.62475"/>
<feGaussianBlur stdDeviation="2.21646"/>
<feComposite in2="hardAlpha" operator="arithmetic" k2="-1" k3="1"/>
<feColorMatrix type="matrix" values="0 0 0 0 0.321804 0 0 0 0 0.309804 0 0 0 0 0.909804 0 0 0 0.25 0"/>
<feBlend mode="normal" in2="shape" result="effect1_innerShadow"/>
</filter>
<filter id="filter3_d" x="478.013" y="210.349" width="92.6397" height="109.081" filterUnits="userSpaceOnUse" color-interpolation-filters="sRGB">
<feFlood flood-opacity="0" result="BackgroundImageFix"/>
<feColorMatrix in="SourceAlpha" type="matrix" values="0 0 0 0 0 0 0 0 0 0 0 0 0 0 0 0 0 0 127 0" result="hardAlpha"/>
<feOffset dy="4.90553"/>
<feGaussianBlur stdDeviation="9.81105"/>
<feColorMatrix type="matrix" values="0 0 0 0 0 0 0 0 0 0 0 0 0 0 0 0 0 0 0.15 0"/>
<feBlend mode="normal" in2="BackgroundImageFix" result="effect1_dropShadow"/>
<feBlend mode="normal" in="SourceGraphic" in2="effect1_dropShadow" result="shape"/>
</filter>
<linearGradient id="paint0_linear" x1="466.054" y1="198.911" x2="607.512" y2="311.2" gradientUnits="userSpaceOnUse">
<stop stop-color="#9013FE"/>
<stop offset="1" stop-color="#6610F2"/>
</linearGradient>
<linearGradient id="paint1_linear" x1="503.182" y1="230.194" x2="534.802" y2="283.67" gradientUnits="userSpaceOnUse">
<stop stop-color="white"/>
<stop offset="1" stop-color="#F1E5FC"/>
</linearGradient>
<clipPath id="clip0">
<rect width="130.688" height="130.688" fill="white" transform="translate(709.152 194)"/>
</clipPath>
<clipPath id="clip1">
<rect width="161.882" height="129" fill="white" transform="translate(442 195.497)"/>
</clipPath>
</defs>
</svg>
